<svg width="20" height="20" viewBox="0 0 20 20" fill="none" xmlns="http://www.w3.org/2000/svg">
<path d="M9.58382 15.0002L10.8338 11.6669L6.76549 10.0002L9.26549 7.08358L11.7655 9.16691H14.6822M11.6672 5.83358C12.1092 5.83358 12.5331 5.65798 12.8457 5.34542C13.1582 5.03286 13.3338 4.60894 13.3338 4.16691C13.3338 3.72488 13.1582 3.30096 12.8457 2.9884C12.5331 2.67584 12.1092 2.50024 11.6672 2.50024C11.2251 2.50024 10.8012 2.67584 10.4886 2.9884C10.1761 3.30096 10.0005 3.72488 10.0005 4.16691C10.0005 4.60894 10.1761 5.03286 10.4886 5.34542C10.8012 5.65798 11.2251 5.83358 11.6672 5.83358ZM15.0005 17.5002C15.6635 17.5002 16.2994 17.2369 16.7683 16.768C17.2371 16.2992 17.5005 15.6633 17.5005 15.0002C17.5005 14.3372 17.2371 13.7013 16.7683 13.2325C16.2994 12.7636 15.6635 12.5002 15.0005 12.5002C14.3374 12.5002 13.7016 12.7636 13.2327 13.2325C12.7639 13.7013 12.5005 14.3372 12.5005 15.0002C12.5005 15.6633 12.7639 16.2992 13.2327 16.768C13.7016 17.2369 14.3374 17.5002 15.0005 17.5002ZM5.00049 17.5002C5.66353 17.5002 6.29941 17.2369 6.76826 16.768C7.2371 16.2992 7.50049 15.6633 7.50049 15.0002C7.50049 14.3372 7.2371 13.7013 6.76826 13.2325C6.29941 12.7636 5.66353 12.5002 5.00049 12.5002C4.33745 12.5002 3.70156 12.7636 3.23272 13.2325C2.76388 13.7013 2.50049 14.3372 2.50049 15.0002C2.50049 15.6633 2.76388 16.2992 3.23272 16.768C3.70156 17.2369 4.33745 17.5002 5.00049 17.5002Z" stroke="white" stroke-width="1.25" stroke-linecap="round" stroke-linejoin="round"/>
</svg>
