<svg width="20" height="20" viewBox="0 0 20 20" fill="none" xmlns="http://www.w3.org/2000/svg">
<path d="M10.0005 7.50024C10.0005 6.66691 10.5955 5.83358 11.7863 5.83358C12.4178 5.83358 13.0233 5.58274 13.4698 5.13625C13.9163 4.68975 14.1672 4.08418 14.1672 3.45274V2.91691M6.66715 7.50024V7.08358C6.66715 6.42054 6.93055 5.78465 7.39939 5.31581C7.86823 4.84697 8.50411 4.58358 9.16715 4.58358C9.60918 4.58358 10.0331 4.40798 10.3457 4.09542C10.6582 3.78286 10.8338 3.35894 10.8338 2.91691V2.50024M13.3338 9.16691H15.4172C15.9697 9.16691 16.4996 9.3864 16.8903 9.7771C17.281 10.1678 17.5005 10.6977 17.5005 11.2502C17.5005 11.8028 17.281 12.3327 16.8903 12.7234C16.4996 13.1141 15.9697 13.3336 15.4172 13.3336H14.1672M14.1672 9.66691V12.5002C14.1672 13.8263 13.6404 15.0981 12.7027 16.0358C11.765 16.9735 10.4932 17.5002 9.16715 17.5002H7.50049C6.17441 17.5002 4.90264 16.9735 3.96495 16.0358C3.02727 15.0981 2.50049 13.8263 2.50049 12.5002V9.66691C2.50049 9.5343 2.55317 9.40713 2.64693 9.31336C2.7407 9.21959 2.86788 9.16691 3.00049 9.16691H13.6672C13.7998 9.16691 13.9269 9.21959 14.0207 9.31336C14.1145 9.40713 14.1672 9.5343 14.1672 9.66691Z" stroke="white" stroke-width="1.25" stroke-linecap="round" stroke-linejoin="round"/>
</svg>
