<svg width="20" height="20" viewBox="0 0 20 20" fill="none" xmlns="http://www.w3.org/2000/svg">
<path fill-rule="evenodd" clip-rule="evenodd" d="M10.0003 1.04169C12.5426 1.04177 14.9574 2.58775 15.9661 5.01337C16.9038 7.26851 16.3951 9.19474 15.3421 10.8356C14.4724 12.1906 13.199 13.3974 12.0667 14.4704C11.8662 14.6604 11.6703 14.8463 11.4817 15.028C11.084 15.4111 10.5525 15.6246 10.0003 15.6247C9.44795 15.6247 8.9166 15.4111 8.51882 15.028L8.51784 15.027C8.31839 14.8338 8.10961 14.6357 7.89675 14.4333L7.03933 13.61C6.17324 12.762 5.30591 11.839 4.66042 10.8356C3.6059 9.19625 3.0954 7.27154 4.03445 5.01337C5.0432 2.58769 7.45787 1.04169 10.0003 1.04169ZM9.99929 4.99969C8.61883 4.99987 7.49946 6.11924 7.49929 7.49969C7.49929 8.8803 8.61873 9.99952 9.99929 9.99969C11.38 9.99969 12.4993 8.88041 12.4993 7.49969C12.4991 6.11913 11.3799 4.99969 9.99929 4.99969Z" fill="white" fill-opacity="0.9"/>
<path d="M4.99984 15.625C5.43417 15.625 5.7909 15.9573 5.82968 16.3815C5.84409 16.3973 5.86866 16.4211 5.90857 16.4526C6.05721 16.5697 6.32394 16.7116 6.72783 16.8463C7.52688 17.1126 8.68377 17.2917 9.99984 17.2917C11.3159 17.2917 12.4728 17.1126 13.2718 16.8463C13.6757 16.7116 13.9425 16.5697 14.0911 16.4526C14.131 16.4211 14.1556 16.3973 14.17 16.3815C14.2088 15.9573 14.5655 15.625 14.9998 15.625C15.4601 15.625 15.8332 15.9981 15.8332 16.4583C15.8332 17.0532 15.4707 17.4873 15.1227 17.7616C14.7653 18.0432 14.2998 18.2604 13.7989 18.4274C12.7883 18.7643 11.4452 18.9583 9.99984 18.9583C8.55448 18.9583 7.21137 18.7643 6.20078 18.4274C5.69984 18.2604 5.23434 18.0432 4.87695 17.7616C4.52896 17.4873 4.1665 17.0532 4.1665 16.4583C4.1665 15.9981 4.5396 15.625 4.99984 15.625Z" fill="white" fill-opacity="0.9"/>
</svg>
