<svg width="20" height="20" viewBox="0 0 20 20" fill="none" xmlns="http://www.w3.org/2000/svg">
<g clip-path="url(#clip0_1_247)">
<path d="M5.00016 10.8336C3.611 10.8336 0.833496 11.667 0.833496 15.0003C0.833496 18.3336 3.611 19.1669 5.00016 19.1669H15.0002C16.3893 19.1669 19.1668 18.3336 19.1668 15.0003C19.1668 11.667 16.3893 10.8336 15.0002 10.8336M15.8335 7.50028H16.6668M10.0002 1.66695V0.833618M15.4168 2.91695L14.5835 3.75028M4.5835 2.91695L5.41683 3.75028M3.3335 7.50028H4.16683M10.0002 10.0003C10.6632 10.0003 11.2991 9.73689 11.7679 9.26805C12.2368 8.79921 12.5002 8.16333 12.5002 7.50028C12.5002 6.83724 12.2368 6.20136 11.7679 5.73252C11.2991 5.26368 10.6632 5.00028 10.0002 5.00028C9.33712 5.00028 8.70124 5.26368 8.23239 5.73252C7.76355 6.20136 7.50016 6.83724 7.50016 7.50028C7.50016 8.16333 7.76355 8.79921 8.23239 9.26805C8.70124 9.73689 9.33712 10.0003 10.0002 10.0003Z" stroke="white" stroke-width="1.25" stroke-linecap="round" stroke-linejoin="round"/>
</g>
<defs>
<clipPath id="clip0_1_247">
<rect width="20" height="20" fill="white"/>
</clipPath>
</defs>
</svg>
