<svg width="24" height="24" viewBox="0 0 24 24" fill="none" xmlns="http://www.w3.org/2000/svg">
<path d="M12.0005 15.0003C12.7961 15.0003 13.5592 14.6842 14.1218 14.1216C14.6844 13.559 15.0005 12.796 15.0005 12.0003C15.0005 11.2047 14.6844 10.4416 14.1218 9.87898C13.5592 9.31638 12.7961 9.00031 12.0005 9.00031C11.2048 9.00031 10.4418 9.31638 9.87917 9.87898C9.31656 10.4416 9.00049 11.2047 9.00049 12.0003C9.00049 12.796 9.31656 13.559 9.87917 14.1216C10.4418 14.6842 11.2048 15.0003 12.0005 15.0003Z" stroke="white" stroke-opacity="0.6" stroke-width="1.5" stroke-linecap="round" stroke-linejoin="round"/>
<path d="M19.6225 10.3953L18.5255 7.74531L20.0005 6.00031L18.0005 4.00031L16.2655 5.4833L13.5585 4.37031L12.9355 2.00031H10.9815L10.3495 4.40131L7.70449 5.5163L6.00049 4.00031L4.00049 6.00031L5.45349 7.78931L4.37349 10.4463L2.00049 11.0003V13.0003L4.40149 13.6563L5.51649 16.3003L4.00049 18.0003L6.00049 20.0003L7.79149 18.5403L10.3975 19.6123L11.0005 22.0003H13.0005L13.6045 19.6133L16.2555 18.5153C16.6975 18.8323 18.0005 20.0003 18.0005 20.0003L20.0005 18.0003L18.5165 16.2503L19.6145 13.5983L22.0005 12.9783V11.0003L19.6225 10.3953Z" stroke="white" stroke-opacity="0.6" stroke-width="1.5" stroke-linecap="round" stroke-linejoin="round"/>
</svg>
