<svg width="20" height="20" viewBox="0 0 20 20" fill="none" xmlns="http://www.w3.org/2000/svg">
<g clip-path="url(#clip0_1_320)">
<path d="M18.3335 10.0003H19.1668M10.0002 1.66695V0.833618M10.0002 19.1669V18.3336M16.6668 16.6669L15.8335 15.8336M16.6668 3.33362L15.8335 4.16695M3.3335 16.6669L4.16683 15.8336M3.3335 3.33362L4.16683 4.16695M0.833496 10.0003H1.66683M10.0002 15.0003C11.3262 15.0003 12.598 14.4735 13.5357 13.5358C14.4734 12.5981 15.0002 11.3264 15.0002 10.0003C15.0002 8.6742 14.4734 7.40243 13.5357 6.46475C12.598 5.52707 11.3262 5.00028 10.0002 5.00028C8.67408 5.00028 7.40231 5.52707 6.46463 6.46475C5.52695 7.40243 5.00016 8.6742 5.00016 10.0003C5.00016 11.3264 5.52695 12.5981 6.46463 13.5358C7.40231 14.4735 8.67408 15.0003 10.0002 15.0003Z" stroke="white" stroke-width="1.25" stroke-linecap="round" stroke-linejoin="round"/>
</g>
<defs>
<clipPath id="clip0_1_320">
<rect width="20" height="20" fill="white"/>
</clipPath>
</defs>
</svg>
